<?xml version="1.0" encoding="UTF-8" standalone="no"?>
<!-- Created with Inkscape (http://www.inkscape.org/) -->

<svg
   xmlns:dc="http://purl.org/dc/elements/1.1/"
   xmlns:cc="http://creativecommons.org/ns#"
   xmlns:rdf="http://www.w3.org/1999/02/22-rdf-syntax-ns#"
   xmlns:svg="http://www.w3.org/2000/svg"
   xmlns="http://www.w3.org/2000/svg"
   xmlns:sodipodi="http://sodipodi.sourceforge.net/DTD/sodipodi-0.dtd"
   xmlns:inkscape="http://www.inkscape.org/namespaces/inkscape"
   id="svg2"
   version="1.1"
   inkscape:version="0.91 r13725"
   xml:space="preserve"
   width="62.5"
   height="100"
   viewBox="0 0 62.5 100"
   sodipodi:docname="_marker_season_filter.svg"
   inkscape:export-filename="/home/jan/Dropbox/py/AndroidStudioProjects/Mundraub/app/src/main/res/drawable-xxxhdpi/_marker_reset_filter.png"
   inkscape:export-xdpi="144"
   inkscape:export-ydpi="144"><metadata
     id="metadata8"><rdf:RDF><cc:Work
         rdf:about=""><dc:format>image/svg+xml</dc:format><dc:type
           rdf:resource="http://purl.org/dc/dcmitype/StillImage" /><dc:title></dc:title></cc:Work></rdf:RDF></metadata><defs
     id="defs6"><clipPath
       clipPathUnits="userSpaceOnUse"
       id="clipPath16"><path
         d="M 0,80 50,80 50,0 0,0 0,80 Z"
         id="path18"
         inkscape:connector-curvature="0" /></clipPath><clipPath
       clipPathUnits="userSpaceOnUse"
       id="clipPath36"><path
         d="M 0,80 50,80 50,0 0,0 0,80 Z"
         id="path38"
         inkscape:connector-curvature="0" /></clipPath><clipPath
       clipPathUnits="userSpaceOnUse"
       id="clipPath56"><path
         d="M 0,80 50,80 50,0 0,0 0,80 Z"
         id="path58"
         inkscape:connector-curvature="0" /></clipPath><clipPath
       clipPathUnits="userSpaceOnUse"
       id="clipPath76"><path
         d="M 0,80 50,80 50,0 0,0 0,80 Z"
         id="path78"
         inkscape:connector-curvature="0" /></clipPath><clipPath
       clipPathUnits="userSpaceOnUse"
       id="clipPath96"><path
         d="M 0,80 50,80 50,0 0,0 0,80 Z"
         id="path98"
         inkscape:connector-curvature="0" /></clipPath><clipPath
       clipPathUnits="userSpaceOnUse"
       id="clipPath116"><path
         d="M 0,80 50,80 50,0 0,0 0,80 Z"
         id="path118"
         inkscape:connector-curvature="0" /></clipPath><clipPath
       clipPathUnits="userSpaceOnUse"
       id="clipPath136"><path
         d="M 0,80 50,80 50,0 0,0 0,80 Z"
         id="path138"
         inkscape:connector-curvature="0" /></clipPath><clipPath
       clipPathUnits="userSpaceOnUse"
       id="clipPath156"><path
         d="M 0,80 50,80 50,0 0,0 0,80 Z"
         id="path158"
         inkscape:connector-curvature="0" /></clipPath><clipPath
       clipPathUnits="userSpaceOnUse"
       id="clipPath176"><path
         d="M 0,80 50,80 50,0 0,0 0,80 Z"
         id="path178"
         inkscape:connector-curvature="0" /></clipPath><clipPath
       clipPathUnits="userSpaceOnUse"
       id="clipPath196"><path
         d="M 0,80 50,80 50,0 0,0 0,80 Z"
         id="path198"
         inkscape:connector-curvature="0" /></clipPath><clipPath
       clipPathUnits="userSpaceOnUse"
       id="clipPath216"><path
         d="M 0,80 50,80 50,0 0,0 0,80 Z"
         id="path218"
         inkscape:connector-curvature="0" /></clipPath><clipPath
       clipPathUnits="userSpaceOnUse"
       id="clipPath236"><path
         d="M 0,80 50,80 50,0 0,0 0,80 Z"
         id="path238"
         inkscape:connector-curvature="0" /></clipPath><clipPath
       clipPathUnits="userSpaceOnUse"
       id="clipPath256"><path
         d="M 0,80 50,80 50,0 0,0 0,80 Z"
         id="path258"
         inkscape:connector-curvature="0" /></clipPath><clipPath
       clipPathUnits="userSpaceOnUse"
       id="clipPath276"><path
         d="M 0,80 50,80 50,0 0,0 0,80 Z"
         id="path278"
         inkscape:connector-curvature="0" /></clipPath><clipPath
       clipPathUnits="userSpaceOnUse"
       id="clipPath296"><path
         d="M 0,80 50,80 50,0 0,0 0,80 Z"
         id="path298"
         inkscape:connector-curvature="0" /></clipPath><clipPath
       clipPathUnits="userSpaceOnUse"
       id="clipPath316"><path
         d="M 0,80 50,80 50,0 0,0 0,80 Z"
         id="path318"
         inkscape:connector-curvature="0" /></clipPath><clipPath
       clipPathUnits="userSpaceOnUse"
       id="clipPath336"><path
         d="M 0,80 50,80 50,0 0,0 0,80 Z"
         id="path338"
         inkscape:connector-curvature="0" /></clipPath><clipPath
       clipPathUnits="userSpaceOnUse"
       id="clipPath356"><path
         d="M 0,80 50,80 50,0 0,0 0,80 Z"
         id="path358"
         inkscape:connector-curvature="0" /></clipPath><clipPath
       clipPathUnits="userSpaceOnUse"
       id="clipPath376"><path
         d="M 0,80 50,80 50,0 0,0 0,80 Z"
         id="path378"
         inkscape:connector-curvature="0" /></clipPath><clipPath
       clipPathUnits="userSpaceOnUse"
       id="clipPath396"><path
         d="M 0,80 50,80 50,0 0,0 0,80 Z"
         id="path398"
         inkscape:connector-curvature="0" /></clipPath><clipPath
       clipPathUnits="userSpaceOnUse"
       id="clipPath416"><path
         d="M 0,80 50,80 50,0 0,0 0,80 Z"
         id="path418"
         inkscape:connector-curvature="0" /></clipPath><clipPath
       clipPathUnits="userSpaceOnUse"
       id="clipPath436"><path
         d="M 0,80 50,80 50,0 0,0 0,80 Z"
         id="path438"
         inkscape:connector-curvature="0" /></clipPath><clipPath
       clipPathUnits="userSpaceOnUse"
       id="clipPath456"><path
         d="M 0,80 50,80 50,0 0,0 0,80 Z"
         id="path458"
         inkscape:connector-curvature="0" /></clipPath><clipPath
       clipPathUnits="userSpaceOnUse"
       id="clipPath476"><path
         d="M 0,80 50,80 50,0 0,0 0,80 Z"
         id="path478"
         inkscape:connector-curvature="0" /></clipPath><clipPath
       clipPathUnits="userSpaceOnUse"
       id="clipPath496"><path
         d="M 0,80 50,80 50,0 0,0 0,80 Z"
         id="path498"
         inkscape:connector-curvature="0" /></clipPath><clipPath
       clipPathUnits="userSpaceOnUse"
       id="clipPath516"><path
         d="M 0,80 50,80 50,0 0,0 0,80 Z"
         id="path518"
         inkscape:connector-curvature="0" /></clipPath><clipPath
       clipPathUnits="userSpaceOnUse"
       id="clipPath536"><path
         d="M 0,80 50,80 50,0 0,0 0,80 Z"
         id="path538"
         inkscape:connector-curvature="0" /></clipPath><clipPath
       clipPathUnits="userSpaceOnUse"
       id="clipPath556"><path
         d="M 0,80 50,80 50,0 0,0 0,80 Z"
         id="path558"
         inkscape:connector-curvature="0" /></clipPath><clipPath
       clipPathUnits="userSpaceOnUse"
       id="clipPath576"><path
         d="M 0,80 50,80 50,0 0,0 0,80 Z"
         id="path578"
         inkscape:connector-curvature="0" /></clipPath><clipPath
       clipPathUnits="userSpaceOnUse"
       id="clipPath596"><path
         d="M 0,80 50,80 50,0 0,0 0,80 Z"
         id="path598"
         inkscape:connector-curvature="0" /></clipPath><clipPath
       clipPathUnits="userSpaceOnUse"
       id="clipPath620"><path
         d="M 0,80 50,80 50,0 0,0 0,80 Z"
         id="path622"
         inkscape:connector-curvature="0" /></clipPath><clipPath
       clipPathUnits="userSpaceOnUse"
       id="clipPath644"><path
         d="M 0,80 50,80 50,0 0,0 0,80 Z"
         id="path646"
         inkscape:connector-curvature="0" /></clipPath><clipPath
       clipPathUnits="userSpaceOnUse"
       id="clipPath668"><path
         d="M 0,80 50,80 50,0 0,0 0,80 Z"
         id="path670"
         inkscape:connector-curvature="0" /></clipPath><clipPath
       clipPathUnits="userSpaceOnUse"
       id="clipPath688"><path
         d="M 0,80 50,80 50,0 0,0 0,80 Z"
         id="path690"
         inkscape:connector-curvature="0" /></clipPath><clipPath
       clipPathUnits="userSpaceOnUse"
       id="clipPath708"><path
         d="M 0,80 50,80 50,0 0,0 0,80 Z"
         id="path710"
         inkscape:connector-curvature="0" /></clipPath></defs><sodipodi:namedview
     pagecolor="#ffffff"
     bordercolor="#666666"
     borderopacity="1"
     objecttolerance="10"
     gridtolerance="10"
     guidetolerance="10"
     inkscape:pageopacity="0"
     inkscape:pageshadow="2"
     inkscape:window-width="1920"
     inkscape:window-height="1027"
     id="namedview4"
     showgrid="false"
     inkscape:zoom="6.675088"
     inkscape:cx="11.732408"
     inkscape:cy="55.709486"
     inkscape:window-x="0"
     inkscape:window-y="0"
     inkscape:window-maximized="1"
     inkscape:current-layer="g706" /><g
     id="g10"
     inkscape:groupmode="layer"
     inkscape:label="pins"
     transform="matrix(1.25,0,0,-1.25,0,100)"><g
       id="g704"
       transform="translate(0.250965,0.11984859)"
       inkscape:export-xdpi="900"
       inkscape:export-ydpi="900"><g
         id="g706"
         clip-path="url(#clipPath708)"><g
           id="g712"
           transform="translate(25.0015,1.9316)"
           style="fill:#808080;fill-opacity:1"><path
             d="m 0,0 c -4.367,7.273 -24.001,40.652 -24.001,52.749 0,13.41 10.767,24.319 24.001,24.319 13.233,0 23.999,-10.909 23.999,-24.319 C 23.999,40.652 4.367,7.273 0,0"
             style="fill:#808080;fill-opacity:1;fill-rule:nonzero;stroke:none"
             id="path714"
             inkscape:connector-curvature="0" /></g><g
           id="g716"
           transform="translate(25.0015,80)"><path
             d="M 0,0 C -13.81,0 -25.001,-11.335 -25.001,-25.319 -25.001,-39.302 0,-80 0,-80 0,-80 24.999,-39.302 24.999,-25.319 24.999,-11.335 13.806,0 0,0 M 0,-2 C 12.681,-2 22.999,-12.461 22.999,-25.319 22.999,-36.507 5.59,-66.708 0,-76.118 -5.591,-66.709 -23.001,-36.51 -23.001,-25.319 -23.001,-12.461 -12.683,-2 0,-2"
             style="fill:#ffffff;fill-opacity:1;fill-rule:nonzero;stroke:none"
             id="path718"
             inkscape:connector-curvature="0" /></g><g
           id="g4873"
           transform="matrix(1.3333333,0,0,-1.3333333,-42.2,68.000151)"><path
             id="path4863"
             d="M 0,0 24,0 24,24 0,24 Z"
             inkscape:connector-curvature="0"
             style="fill:none" /><path
             id="path4865"
             d="m 14,12 c 0,-1.1 -0.9,-2 -2,-2 -1.1,0 -2,0.9 -2,2 0,1.1 0.9,2 2,2 1.1,0 2,-0.9 2,-2 z M 12,3 C 7.03,3 3,7.03 3,12 l -3,0 4,4 4,-4 -3,0 c 0,-3.87 3.13,-7 7,-7 3.87,0 7,3.13 7,7 0,3.87 -3.13,7 -7,7 -1.51,0 -2.91,-0.49 -4.06,-1.3 L 6.52,19.14 C 8.04,20.3 9.94,21 12,21 c 4.97,0 9,-4.03 9,-9 0,-4.97 -4.03,-9 -9,-9 z"
             inkscape:connector-curvature="0"
             style="fill:#ffffff;fill-opacity:1" /></g><g
           id="g4917"
           transform="matrix(1.3333333,0,0,-1.3333333,9.000235,68.000151)"><rect
             id="rect4919"
             width="24"
             height="24"
             x="0"
             y="0"
             style="fill:none" /><path
             id="path4921"
             d="M 16.54,11 13,7.46 14.41,6.05 16.53,8.17 20.77,3.93 22.18,5.34 16.54,11 Z M 11,7 2,7 2,9 11,9 11,7 Z M 21,13.41 19.59,12 17,14.59 14.41,12 13,13.41 15.59,16 13,18.59 14.41,20 17,17.41 19.59,20 21,18.59 18.41,16 21,13.41 Z M 11,15 l -9,0 0,2 9,0 0,-2 z"
             inkscape:connector-curvature="0"
             style="fill:#ffffff;fill-opacity:1" /></g></g></g></g></svg>