<?xml version="1.0" encoding="UTF-8" standalone="no"?>
<!-- Generator: Adobe Illustrator 19.2.1, SVG Export Plug-In . SVG Version: 6.00 Build 0)  -->

<svg
   xmlns:dc="http://purl.org/dc/elements/1.1/"
   xmlns:cc="http://creativecommons.org/ns#"
   xmlns:rdf="http://www.w3.org/1999/02/22-rdf-syntax-ns#"
   xmlns:svg="http://www.w3.org/2000/svg"
   xmlns="http://www.w3.org/2000/svg"
   xmlns:sodipodi="http://sodipodi.sourceforge.net/DTD/sodipodi-0.dtd"
   xmlns:inkscape="http://www.inkscape.org/namespaces/inkscape"
   version="1.1"
   id="Ebene_1"
   x="0px"
   y="0px"
   viewBox="0 0 260 40"
   xml:space="preserve"
   inkscape:version="0.91 r13725"
   sodipodi:docname="mundraub_logo_bar.svg"
   width="260"
   height="40"
   inkscape:export-filename="/home/jan/Dropbox/py/AndroidStudioProjects/Mundraub/app/src/main/res/drawable-xxxhdpi/mundraub_logo_bar.png"
   inkscape:export-xdpi="946.3255"
   inkscape:export-ydpi="946.3255"><metadata
     id="metadata67"><rdf:RDF><cc:Work
         rdf:about=""><dc:format>image/svg+xml</dc:format><dc:type
           rdf:resource="http://purl.org/dc/dcmitype/StillImage" /><dc:title></dc:title></cc:Work></rdf:RDF></metadata><defs
     id="defs65" /><sodipodi:namedview
     pagecolor="#ffffff"
     bordercolor="#666666"
     borderopacity="1"
     objecttolerance="10"
     gridtolerance="10"
     guidetolerance="10"
     inkscape:pageopacity="0"
     inkscape:pageshadow="2"
     inkscape:window-width="1497"
     inkscape:window-height="646"
     id="namedview63"
     showgrid="false"
     inkscape:zoom="1.9491234"
     inkscape:cx="139.34397"
     inkscape:cy="23.713618"
     inkscape:window-x="0"
     inkscape:window-y="0"
     inkscape:window-maximized="0"
     inkscape:current-layer="g5" /><style
     type="text/css"
     id="style3">
	.st0{fill:#94B422;}
	.st1{fill:#516F29;}
	.st2{fill:#FFFFFF;}
</style><g
     id="g5"
     transform="translate(0,-23.200002)"><path
       class="st0"
       d="m 112.75724,49.834156 c -0.57337,3.153577 1.00341,2.436855 2.15017,4.013644 1.00341,1.433444 -2.5802,4.300333 -6.16381,4.730366 -2.72354,0.286688 -3.29692,-1.00341 -4.44368,-2.29351 -1.14675,-1.2901 -7.597254,5.017055 -10.894176,1.2901 -3.010233,-3.440267 2.866889,-11.6109 -1.433443,-12.757655 -2.436857,-0.716723 -0.430034,-2.293511 1.576788,-3.8703 1.576789,-1.146756 6.020467,-3.583611 7.597251,-1.576789 2.00683,2.436856 -1.146751,8.600666 -1.00341,11.610899 0,2.436855 3.58361,1.576789 4.73037,-1.003411 1.14676,-2.5802 1.2901,-4.587022 1.86348,-7.310565 0.43003,-2.293512 1.00341,-3.440267 3.29692,-3.8703 3.15358,-0.573378 4.73037,0.143343 4.15699,3.296921 l -1.43345,7.7406 c -0.14334,0.573377 0,0 0,0 z"
       id="path7"
       inkscape:connector-curvature="0"
       style="fill:#94b422" /><path
       class="st0"
       d="M 90.538856,53.131078 C 89.392101,51.554289 87.241934,52.5577 87.528623,49.9775 c 0.143345,-0.860067 0.286688,-1.576789 0.430033,-2.293511 0.430033,-2.723544 2.436855,-8.027288 -0.860067,-8.744011 -5.017054,-1.146755 -8.744009,4.013645 -9.604076,1.720134 -1.863478,-5.447089 -12.470966,2.866889 -12.470966,0.573378 -0.143345,-2.150167 -2.150167,-2.866889 -3.8703,-2.436855 -2.150167,0.430033 -3.440267,1.146755 -4.443677,2.150166 -1.576789,1.433444 -2.723545,4.730366 -0.573378,4.730366 2.150167,0 -0.143345,7.740599 -0.286688,9.030699 -0.716723,4.300333 1.863476,4.587022 5.590431,3.583612 2.723545,-0.573379 2.723545,-2.436856 3.010234,-4.873712 0.143344,-2.29351 -0.143344,-5.447088 2.006823,-6.880533 3.58361,-2.436855 1.146755,6.4505 1.00341,7.310567 -0.860067,4.730366 1.720133,5.877121 6.020466,4.156988 3.296922,-1.290099 2.5802,-4.87371 3.010233,-7.740599 0.430034,-2.866889 3.440267,-5.733778 3.726955,-1.433444 0.28669,2.866888 -2.723543,9.890766 2.723545,9.890766 1.863477,-0.143345 3.726955,-0.860067 5.447088,-1.720133 0.716722,-0.716722 3.153578,-2.436855 2.150167,-3.8703 z"
       id="path9"
       inkscape:connector-curvature="0"
       style="fill:#94b422" /><path
       class="st0"
       d="m 130.53196,47.253956 c 0.14334,-2.006823 -2.15017,-1.003411 -2.86689,-0.143345 -0.86007,1.2901 -1.14676,2.150167 -1.43345,3.726955 -0.43003,2.723545 0,6.593845 -3.15357,7.453912 -12.61432,3.58361 0,-13.187688 -5.73378,-13.617722 -1.86348,0 -1.2901,-2.150166 0,-2.866888 1.2901,-0.860067 3.01023,-1.720133 4.44368,-2.293511 2.15016,-0.860067 3.8703,-2.150167 5.01705,0.860066 0.57338,1.433445 2.29351,0.573378 3.8703,-0.430033 2.15017,-1.576789 7.31057,-2.293512 8.31398,1.003411 0.86007,2.866889 -0.71673,8.457322 -1.00341,11.32421 -0.28669,2.293512 2.5802,4.013645 0.86006,5.303745 -1.86348,1.290098 -4.73036,1.146755 -7.02388,1.146755 -4.58701,0 -2.15016,-6.307155 -1.72013,-8.887355 0,0 0.28669,-0.573378 0.43004,-2.5802 z"
       id="path11"
       inkscape:connector-curvature="0"
       style="fill:#94b422" /><path
       class="st0"
       d="m 156.04727,36.503123 c -0.57339,-0.716721 -2.29352,-0.573378 -3.01024,-1.2901 -1.14675,-1.2901 1.57679,-2.866888 2.5802,-3.296921 2.86689,-1.2901 9.89077,-2.5802 8.74402,2.723543 l -0.86007,6.593845 -0.71673,5.1604 -0.43003,5.303743 c 0,1.720133 3.44026,1.433445 1.72013,3.583611 -1.43344,1.863478 -4.30033,2.723544 -6.30715,3.296922 -3.58362,0.860067 -2.43685,-2.436855 -4.01365,-2.436855 -1.57678,0 -3.72695,2.29351 -5.59043,2.723543 -7.16722,1.433445 -6.4505,-7.597254 -4.8737,-11.897588 1.0034,-2.723543 2.5802,-5.303743 5.01705,-6.880531 1.14675,-0.716723 2.5802,-1.433445 4.01364,-1.433445 1.2901,0 2.00682,0.430033 3.15357,0.430033 0.43004,0.143345 1.00342,-2.006822 0.57339,-2.5802 z m -0.57339,7.883945 c 0,-3.296923 -3.01023,0.286688 -3.44026,1.290099 -0.86007,1.720133 -2.15017,5.447089 -2.15017,7.453911 0.14335,3.010233 3.01023,-0.573378 3.44027,-1.433445 0.86006,-1.720133 2.15016,-5.303743 2.15016,-7.310565 0,-0.430033 0,2.006822 0,0 z"
       id="path13"
       inkscape:connector-curvature="0"
       style="fill:#94b422" /><path
       class="st0"
       d="m 171.9585,58.434821 c -5.30375,1.003412 -5.73378,-1.433443 -4.73037,-5.877121 0.28669,-1.720134 0.71672,-3.440267 0.86007,-5.1604 0.28668,-2.580199 0,-2.006822 -2.00682,-2.723544 -4.01365,-1.433444 3.8703,-5.303744 4.73037,-5.590433 4.30033,-1.576788 4.01363,2.150167 4.58702,3.153578 0.57338,1.003411 2.00681,-3.583611 4.87371,-3.583611 4.01364,-0.143345 5.73377,6.163811 2.5802,8.457321 -3.15358,2.436855 -5.01706,-4.156988 -6.16381,0 0,0 -1.14676,4.013645 -1.43345,6.163812 -0.28669,2.29351 -0.43004,4.730365 -3.29692,5.160398 z"
       id="path15"
       inkscape:connector-curvature="0"
       style="fill:#94b422" /><path
       class="st0"
       d="m 243.63071,40.086735 c 0.86007,0 1.86349,-0.28669 3.29692,-0.860067 4.01365,-1.863478 7.02388,1.576788 7.16723,5.303743 0.43004,8.457322 -6.30716,15.19451 -14.76448,14.477788 -10.89418,-0.860066 -2.86688,-14.764476 -4.15698,-21.358321 -0.2867,-1.576788 -3.44027,-0.573377 -3.44027,-2.150166 0,-1.433444 3.01023,-3.296922 4.58702,-3.726955 3.29692,-1.00341 7.88395,-1.863477 7.45391,2.866888 l -0.28669,2.436856 c -0.14334,1.2901 -1.00341,3.010234 0.14334,3.010234 z m -2.00681,13.474376 c 0.43003,3.440267 2.86688,0.143345 3.72695,-2.150167 1.00341,-2.293511 1.00341,-3.870299 0.71672,-5.590433 -0.57337,-3.440266 -3.15357,0.286689 -3.58361,2.150167 -0.57338,1.720133 -1.14676,4.013645 -0.86006,5.590433 0,0.573378 -0.14335,-0.573378 0,0 z"
       id="path17"
       inkscape:connector-curvature="0"
       style="fill:#94b422" /><g
       id="g19"
       transform="matrix(1.4334443,0,0,1.4334443,46.532114,-24.418261)"><path
         class="st0"
         d="m 110.6,45.3 c -0.1,1.6 0.1,-0.8 0,0 l 0,0 z"
         id="path21"
         inkscape:connector-curvature="0"
         style="fill:#94b422" /><path
         class="st0"
         d="m 111.6,54.1 c -0.5,-0.7 -1.4,-0.5 -1.9,-0.9 -0.1,-2.6 0.7,-5.5 0.9,-8.2 0.2,-2.3 -4.2,0.3 -5.3,-0.3 -2.3,-1.5 -4.8,-0.1 -6.6,1.8 -2.6,2.7 -5.3,14.2 1.9,11.4 0.8,-0.3 3.3,-3.1 3.5,-1.4 0.1,1.2 0.9,1.6 1.9,1.5 0.1,0 0.1,0 0.2,0 1.3,-0.1 2.6,-0.6 3.8,-1.2 0.7,-0.5 2.4,-1.7 1.6,-2.7 z m -7.6,-2 c -0.2,0.4 -2,3 -2.3,1.3 -0.3,-1.4 0.5,-3.1 1.2,-4.2 0.3,-0.5 2.5,-3.3 2.5,-1.1 -0.1,1.3 -0.8,2.9 -1.4,4 z"
         id="path23"
         inkscape:connector-curvature="0"
         style="fill:#94b422" /></g><path
       class="st0"
       d="m 231.44643,53.131078 c -0.71672,-1.146755 -2.00682,-0.716722 -2.72353,-1.2901 -0.2867,-0.286689 -0.2867,-0.860067 0,-1.863478 0,0 0,0 0,0.143345 0,0 0,0 0,-0.143345 l 1.2901,-7.310565 c 0.28668,-3.153578 -0.86007,-4.300334 -4.157,-3.8703 -2.2935,0.430033 -2.86689,1.720133 -3.29692,4.013643 -0.57338,2.723545 -1.2901,5.733778 -2.72355,8.170633 -0.86006,1.433445 -3.72695,2.5802 -3.8703,0.143345 -0.14333,-3.010233 3.15358,-9.174044 1.14677,-11.610899 -1.5768,-2.006822 -6.02047,0.860066 -7.59725,1.576788 -1.5768,0.716723 -4.157,3.153578 -1.5768,3.8703 4.30033,1.146755 -1.43344,9.460733 1.43345,12.757654 3.15358,3.726955 9.60407,-3.440266 10.89417,-2.150166 1.14676,1.2901 0.14334,3.440266 2.86689,3.153578 0,0 3.44027,-0.143345 6.02047,-1.720133 0.86007,-0.716722 3.29692,-2.436855 2.2935,-3.8703 z"
       id="path25"
       inkscape:connector-curvature="0"
       style="fill:#94b422" /><g
       id="g27"
       transform="translate(-142.54512,18.234289)"><path
         class="st0"
         d="m 175.8,20 c -2,-2.9 -4.3,-4.3 -7.2,-4.3 -1.6,0 -3.3,0.4 -5.4,1.3 -0.5,0 -1,-0.2 -1.7,-0.3 -1.1,-0.3 -2.4,-0.6 -3.7,-0.6 -2.8,0 -5,1.3 -6.9,3.9 -3.4,4.7 -2.2,11.9 0.4,17 2.2,4.3 5.2,6.9 8,6.9 0.3,0 0.6,0 0.8,-0.1 0,0 0.1,0 0.1,0 0.5,-0.2 0.9,-0.3 1.2,-0.5 0.7,-0.3 0.9,-0.4 2,-0.4 1,0 1.5,0.3 2.2,0.5 0.4,0.1 0.7,0.3 1.2,0.4 0,0 0,0 0.1,0 0.3,0.1 0.6,0.1 0.9,0.1 0,0 0,0 0,0 2.6,0 5.5,-2.4 7.6,-6.4 2.5,-4.9 3.8,-12.5 0.4,-17.5 z"
         id="path29"
         inkscape:connector-curvature="0"
         style="fill:#94b422" /><g
         id="g31"><g
           id="g33"><path
             class="st0"
             d="m 158.7,7.3 c -0.3,-0.3 0.4,-1.7 0.8,-1.4 0.4,0.3 3.7,4.6 4.3,8.8 0.1,0.8 -0.7,0.9 -0.7,0.6 -0.9,-4.9 -4.1,-7.7 -4.4,-8 z"
             id="path35"
             inkscape:connector-curvature="0"
             style="fill:#94b422" /></g></g></g><g
       id="g37"
       transform="translate(-142.54512,18.234289)"><path
         class="st1"
         d="m 177.3,19.9 c 0,0 0.2,-5.7 6.4,-9.7 0.4,7.4 -1.4,8 -6.4,9.7 z"
         id="path39"
         inkscape:connector-curvature="0"
         style="fill:#516f29" /></g><g
       id="g41"
       transform="translate(-142.54512,18.234289)"><path
         class="st1"
         d="m 177.6,20.7 c 1.1,-0.9 4.3,-2.3 9.9,0.6 -4.3,3.1 -8.5,1.7 -9.9,-0.6 z"
         id="path43"
         inkscape:connector-curvature="0"
         style="fill:#516f29" /></g><path
       class="st1"
       d="m 6.854887,41.134289 c -0.8,2.5 -0.8,5.4 -0.2,8.2 4.7,0.7 19,1.7 28.5,-2.1 0.3,-3 -0.1,-6.1 -1.6,-8.5 -11.6,2.8 -22.9,2.6 -26.7,2.4 z"
       id="path45"
       inkscape:connector-curvature="0"
       style="fill:#516f29" /><g
       id="g47"
       transform="translate(-142.54512,18.234289)"><circle
         transform="matrix(0.1117,-0.9937,0.9937,0.1117,113.6687,181.2995)"
         class="st2"
         cx="158.2"
         cy="27.1"
         id="ellipse49"
         r="2.5999999"
         style="fill:#ffffff" /></g><g
       id="g51"
       transform="translate(-142.54512,18.234289)"><circle
         transform="matrix(0.112,-0.9937,0.9937,0.112,113.6611,179.0086)"
         class="st1"
         cx="157"
         cy="25.9"
         id="ellipse53"
         r="1.2"
         style="fill:#516f29" /></g><g
       id="g55"
       transform="translate(-142.54512,18.234289)"><circle
         transform="matrix(0.1118,-0.9937,0.9937,0.1118,122.6801,191.3877)"
         class="st2"
         cx="168.39999"
         cy="27.1"
         id="ellipse57"
         r="2.5999999"
         style="fill:#ffffff" /></g><g
       id="g59"
       transform="translate(-142.54512,18.234289)"><circle
         transform="matrix(0.1119,-0.9937,0.9937,0.1119,122.6903,189.1013)"
         class="st1"
         cx="167.10001"
         cy="25.9"
         id="ellipse61"
         r="1.2"
         style="fill:#516f29" /></g></g></svg>