<?xml version="1.0" encoding="utf-8"?>
<!-- Generator: Adobe Illustrator 19.2.1, SVG Export Plug-In . SVG Version: 6.00 Build 0)  -->
<svg version="1.1" id="Ebene_1" xmlns="http://www.w3.org/2000/svg" xmlns:xlink="http://www.w3.org/1999/xlink" x="0px" y="0px"
	 viewBox="0 0 193 63.2" style="enable-background:new 0 0 193 63.2;" xml:space="preserve">
<style type="text/css">
	.st0{fill:#94B422;}
	.st1{fill:#516F29;}
	.st2{fill:#FFFFFF;}
</style>
<g>
	<path class="st0" d="M46.2,51.8c-0.4,2.2,0.7,1.7,1.5,2.8c0.7,1-1.8,3-4.3,3.3c-1.9,0.2-2.3-0.7-3.1-1.6c-0.8-0.9-5.3,3.5-7.6,0.9
		c-2.1-2.4,2-8.1-1-8.9c-1.7-0.5-0.3-1.6,1.1-2.7c1.1-0.8,4.2-2.5,5.3-1.1c1.4,1.7-0.8,6-0.7,8.1c0,1.7,2.5,1.1,3.3-0.7
		c0.8-1.8,0.9-3.2,1.3-5.1c0.3-1.6,0.7-2.4,2.3-2.7c2.2-0.4,3.3,0.1,2.9,2.3L46.2,51.8C46.1,52.2,46.2,51.8,46.2,51.8z"/>
	<path class="st0" d="M30.7,54.1c-0.8-1.1-2.3-0.4-2.1-2.2c0.1-0.6,0.2-1.1,0.3-1.6c0.3-1.9,1.7-5.6-0.6-6.1
		c-3.5-0.8-6.1,2.8-6.7,1.2c-1.3-3.8-8.7,2-8.7,0.4c-0.1-1.5-1.5-2-2.7-1.7c-1.5,0.3-2.4,0.8-3.1,1.5c-1.1,1-1.9,3.3-0.4,3.3
		c1.5,0-0.1,5.4-0.2,6.3c-0.5,3,1.3,3.2,3.9,2.5c1.9-0.4,1.9-1.7,2.1-3.4c0.1-1.6-0.1-3.8,1.4-4.8c2.5-1.7,0.8,4.5,0.7,5.1
		c-0.6,3.3,1.2,4.1,4.2,2.9c2.3-0.9,1.8-3.4,2.1-5.4c0.3-2,2.4-4,2.6-1c0.2,2-1.9,6.9,1.9,6.9c1.3-0.1,2.6-0.6,3.8-1.2
		C29.7,56.3,31.4,55.1,30.7,54.1z"/>
	<path class="st0" d="M58.6,50c0.1-1.4-1.5-0.7-2-0.1c-0.6,0.9-0.8,1.5-1,2.6c-0.3,1.9,0,4.6-2.2,5.2c-8.8,2.5,0-9.2-4-9.5
		c-1.3,0-0.9-1.5,0-2c0.9-0.6,2.1-1.2,3.1-1.6c1.5-0.6,2.7-1.5,3.5,0.6c0.4,1,1.6,0.4,2.7-0.3c1.5-1.1,5.1-1.6,5.8,0.7
		c0.6,2-0.5,5.9-0.7,7.9c-0.2,1.6,1.8,2.8,0.6,3.7c-1.3,0.9-3.3,0.8-4.9,0.8c-3.2,0-1.5-4.4-1.2-6.2C58.3,51.8,58.5,51.4,58.6,50z"
		/>
	<path class="st0" d="M76.4,42.5c-0.4-0.5-1.6-0.4-2.1-0.9c-0.8-0.9,1.1-2,1.8-2.3c2-0.9,6.9-1.8,6.1,1.9l-0.6,4.6l-0.5,3.6
		l-0.3,3.7c0,1.2,2.4,1,1.2,2.5c-1,1.3-3,1.9-4.4,2.3c-2.5,0.6-1.7-1.7-2.8-1.7c-1.1,0-2.6,1.6-3.9,1.9c-5,1-4.5-5.3-3.4-8.3
		c0.7-1.9,1.8-3.7,3.5-4.8c0.8-0.5,1.8-1,2.8-1c0.9,0,1.4,0.3,2.2,0.3C76.3,44.4,76.7,42.9,76.4,42.5z M76,48c0-2.3-2.1,0.2-2.4,0.9
		c-0.6,1.2-1.5,3.8-1.5,5.2c0.1,2.1,2.1-0.4,2.4-1C75.1,51.9,76,49.4,76,48C76,47.7,76,49.4,76,48z"/>
	<path class="st0" d="M87.5,57.8c-3.7,0.7-4-1-3.3-4.1c0.2-1.2,0.5-2.4,0.6-3.6c0.2-1.8,0-1.4-1.4-1.9c-2.8-1,2.7-3.7,3.3-3.9
		c3-1.1,2.8,1.5,3.2,2.2s1.4-2.5,3.4-2.5c2.8-0.1,4,4.3,1.8,5.9c-2.2,1.7-3.5-2.9-4.3,0c0,0-0.8,2.8-1,4.3
		C89.6,55.8,89.5,57.5,87.5,57.8z"/>
	<path class="st0" d="M137.5,45c0.6,0,1.3-0.2,2.3-0.6c2.8-1.3,4.9,1.1,5,3.7c0.3,5.9-4.4,10.6-10.3,10.1c-7.6-0.6-2-10.3-2.9-14.9
		c-0.2-1.1-2.4-0.4-2.4-1.5c0-1,2.1-2.3,3.2-2.6c2.3-0.7,5.5-1.3,5.2,2l-0.2,1.7C137.3,43.8,136.7,45,137.5,45z M136.1,54.4
		c0.3,2.4,2,0.1,2.6-1.5c0.7-1.6,0.7-2.7,0.5-3.9c-0.4-2.4-2.2,0.2-2.5,1.5C136.3,51.7,135.9,53.3,136.1,54.4
		C136.1,54.8,136,54,136.1,54.4z"/>
	<g>
		<path class="st0" d="M110.6,45.3C110.5,46.9,110.7,44.5,110.6,45.3L110.6,45.3z"/>
		<path class="st0" d="M111.6,54.1c-0.5-0.7-1.4-0.5-1.9-0.9c-0.1-2.6,0.7-5.5,0.9-8.2c0.2-2.3-4.2,0.3-5.3-0.3
			c-2.3-1.5-4.8-0.1-6.6,1.8c-2.6,2.7-5.3,14.2,1.9,11.4c0.8-0.3,3.3-3.1,3.5-1.4c0.1,1.2,0.9,1.6,1.9,1.5c0.1,0,0.1,0,0.2,0
			c1.3-0.1,2.6-0.6,3.8-1.2C110.7,56.3,112.4,55.1,111.6,54.1z M104,52.1c-0.2,0.4-2,3-2.3,1.3c-0.3-1.4,0.5-3.1,1.2-4.2
			c0.3-0.5,2.5-3.3,2.5-1.1C105.3,49.4,104.6,51,104,52.1z"/>
	</g>
	<path class="st0" d="M129,54.1c-0.5-0.8-1.4-0.5-1.9-0.9c-0.2-0.2-0.2-0.6,0-1.3c0,0,0,0,0,0.1c0,0,0,0,0-0.1l0.9-5.1
		c0.2-2.2-0.6-3-2.9-2.7c-1.6,0.3-2,1.2-2.3,2.8c-0.4,1.9-0.9,4-1.9,5.7c-0.6,1-2.6,1.8-2.7,0.1c-0.1-2.1,2.2-6.4,0.8-8.1
		c-1.1-1.4-4.2,0.6-5.3,1.1c-1.1,0.5-2.9,2.2-1.1,2.7c3,0.8-1,6.6,1,8.9c2.2,2.6,6.7-2.4,7.6-1.5c0.8,0.9,0.1,2.4,2,2.2
		c0,0,2.4-0.1,4.2-1.2C128,56.3,129.7,55.1,129,54.1z"/>
	<g>
		<path class="st0" d="M175.8,20c-2-2.9-4.3-4.3-7.2-4.3c-1.6,0-3.3,0.4-5.4,1.3c-0.5,0-1-0.2-1.7-0.3c-1.1-0.3-2.4-0.6-3.7-0.6
			c-2.8,0-5,1.3-6.9,3.9c-3.4,4.7-2.2,11.9,0.4,17c2.2,4.3,5.2,6.9,8,6.9c0.3,0,0.6,0,0.8-0.1c0,0,0.1,0,0.1,0
			c0.5-0.2,0.9-0.3,1.2-0.5c0.7-0.3,0.9-0.4,2-0.4c1,0,1.5,0.3,2.2,0.5c0.4,0.1,0.7,0.3,1.2,0.4c0,0,0,0,0.1,0
			c0.3,0.1,0.6,0.1,0.9,0.1c0,0,0,0,0,0c2.6,0,5.5-2.4,7.6-6.4C177.9,32.6,179.2,25,175.8,20z"/>
		<g>
			<g>
				<path class="st0" d="M158.7,7.3c-0.3-0.3,0.4-1.7,0.8-1.4c0.4,0.3,3.7,4.6,4.3,8.8c0.1,0.8-0.7,0.9-0.7,0.6
					C162.2,10.4,159,7.6,158.7,7.3z"/>
			</g>
		</g>
	</g>
	<g>
		<path class="st1" d="M177.3,19.9c0,0,0.2-5.7,6.4-9.7C184.1,17.6,182.3,18.2,177.3,19.9z"/>
	</g>
	<g>
		<path class="st1" d="M177.6,20.7c1.1-0.9,4.3-2.3,9.9,0.6C183.2,24.4,179,23,177.6,20.7z"/>
	</g>
	<path class="st1" d="M149.4,22.9c-0.8,2.5-0.8,5.4-0.2,8.2c4.7,0.7,19,1.7,28.5-2.1c0.3-3-0.1-6.1-1.6-8.5
		C164.5,23.3,153.2,23.1,149.4,22.9z"/>
	<g>
		
			<ellipse transform="matrix(0.1117 -0.9937 0.9937 0.1117 113.6687 181.2995)" class="st2" cx="158.2" cy="27.1" rx="2.6" ry="2.6"/>
	</g>
	<g>
		<ellipse transform="matrix(0.112 -0.9937 0.9937 0.112 113.6611 179.0086)" class="st1" cx="157" cy="25.9" rx="1.2" ry="1.2"/>
	</g>
	<g>
		
			<ellipse transform="matrix(0.1118 -0.9937 0.9937 0.1118 122.6801 191.3877)" class="st2" cx="168.4" cy="27.1" rx="2.6" ry="2.6"/>
	</g>
	<g>
		
			<ellipse transform="matrix(0.1119 -0.9937 0.9937 0.1119 122.6903 189.1013)" class="st1" cx="167.1" cy="25.9" rx="1.2" ry="1.2"/>
	</g>
</g>
</svg>
